<?xml version="1.0" encoding="utf-8"?>
<svg viewBox="0 0 500 500" xmlns="http://www.w3.org/2000/svg">
  <defs>
    <style id="bx-google-fonts">@import url(https://fonts.googleapis.com/css?family=Roboto:100,300,500,700,900,100italic,300italic,400,400italic,500italic,700italic,900italic);</style>
  </defs>
  <g>
    <path d="M 406.884 233.901 C 406.884 312.818 341.081 376.793 259.909 376.793 C 178.737 376.793 112.934 312.818 112.934 233.901 C 112.934 154.984 178.737 91.009 259.909 91.009 C 341.081 91.009 406.884 154.984 406.884 233.901 Z" style="stroke-linecap: round; fill: rgb(230, 148, 148); stroke-width: 25;"/>
    <path d="M 257.537 93.918 L 259.421 377.19" style="fill: none; stroke: black;"/>
    <path d="M 113.843 233.355 L 407.793 232.099" style="fill: none; stroke: black;"/>
    <g transform="matrix(1, 0, 0, 1, -246.842255, 106.148445)">
      <text x="377.504" y="80.728" style="font-size: 22px; white-space: pre;">prüfen,</text>
      <text x="378.132" y="104.613" style="font-size: 22px; white-space: pre;">überwachen</text>
    </g>
    <g transform="matrix(1, 0, 0, 1, -238.677002, 192.801102)">
      <text x="377.504" y="80.728" style="font-size: 22px; white-space: pre;">vorbeugen,</text>
      <text x="378.132" y="104.613" style="font-size: 22px; white-space: pre;">minimieren</text>
    </g>
    <g transform="matrix(1, 0, 0, 1, -16.958628, 320.32962)">
      <g transform="matrix(1, 0, 0, 1, -92.958405, -128.759949)">
        <text x="377.504" y="80.728" style="font-size: 22px; white-space: pre;">analysieren,</text>
        <text x="378.132" y="104.613" style="font-size: 22px; white-space: pre;">bewerten</text>
      </g>
    </g>
    <g transform="matrix(1, 0, 0, 1, -101.123672, 101.933624)">
      <text x="377.504" y="80.728" style="font-size: 22px; white-space: pre;">Risiken</text>
      <text x="378.132" y="104.613" style="font-size: 22px; white-space: pre;">erkennen</text>
    </g>
  </g>
  <g transform="matrix(1, 0, 0, 1, -11.933849, 11.933849)">
    <text x="377.504" y="80.728" style="fill: rgb(79, 126, 208); font-size: 18px; white-space: pre;">Eintrittswahr-</text>
    <text x="378.132" y="104.613" style="fill: rgb(79, 126, 208); font-size: 18px; white-space: pre;">scheinlichkeit</text>
  </g>
  <defs>
    <style id="bx-google-fonts">@import url(https://fonts.googleapis.com/css?family=Roboto:100,100italic,300,300italic,400,400italic,500,500italic,700,700italic,900,900italic);</style>
  </defs>
  <g transform="matrix(1.079366, 0, 0, 1, -10.908619, 0.628097)">
    <g transform="matrix(1.058823, 0, 0, 1, -25.30953, 0)">
      <g transform="matrix(1, 0, 0, 1, -34.125, -11)">
        <path d="M 449.185 144.794 C 478.659 144.391 480.405 334.748 450.363 358.975 L 473.681 345.785" style="fill: none; stroke-width: 5.6; stroke: rgb(79, 126, 208);"/>
        <path d="M 451.788 357.347 L 443.78 334.108" style="fill: none; stroke-width: 5.6; stroke: rgb(79, 126, 208);"/>
      </g>
    </g>
  </g>
  <path d="M 332.909 378.446" style="fill: none; stroke: black;"/>
  <g transform="matrix(1, 0, 0, 1, -33.917255, 315.304871)">
    <text x="377.504" y="80.728" style="fill: rgb(79, 126, 208); font-size: 18px; white-space: pre;">Schadens-</text>
    <text x="378.132" y="104.613" style="fill: rgb(79, 126, 208); font-size: 18px; white-space: pre;">ausmass</text>
    <text x="377.504" y="80.728" style="fill: rgb(79, 126, 208); font-size: 18px; white-space: pre;">Schadens-</text>
    <text x="378.132" y="104.613" style="fill: rgb(79, 126, 208); font-size: 18px; white-space: pre;">ausmass</text>
    <text x="106.794" y="74.133" style="fill: rgb(79, 126, 208); font-size: 18px; white-space: pre;">Gegenmass-</text>
    <text x="107.422" y="98.018" style="fill: rgb(79, 126, 208); font-size: 18px; white-space: pre;">nahmen</text>
    <text x="95.489" y="-204.114" style="fill: rgb(79, 126, 208); font-size: 18px; white-space: pre;">IST-Stand</text>
  </g>
  <g transform="matrix(0, 1.079366, -1, 0, 490.645203, -16.344866)">
    <g transform="matrix(1.058823, 0, 0, 1, -25.30953, 0)">
      <g transform="matrix(1, 0, 0, 1, -34.125, -11)">
        <path d="M 449.185 144.794 C 478.659 144.391 480.405 334.748 450.363 358.975 L 473.681 345.785" style="fill: none; stroke-width: 5.6; stroke: rgb(79, 126, 208);"/>
        <path d="M 451.788 357.347 L 443.78 334.108" style="fill: none; stroke-width: 5.6; stroke: rgb(79, 126, 208);"/>
      </g>
    </g>
  </g>
  <g transform="matrix(-1.079366, 0, 0, -1, 524.990051, 483.250336)">
    <g transform="matrix(1.058823, 0, 0, 1, -25.30953, 0)">
      <g transform="matrix(1, 0, 0, 1, -34.125, -11)">
        <path d="M 449.185 144.794 C 478.659 144.391 480.405 334.748 450.363 358.975 L 473.681 345.785" style="fill: none; stroke-width: 5.6; stroke: rgb(79, 126, 208);"/>
        <path d="M 451.788 357.347 L 443.78 334.108" style="fill: none; stroke-width: 5.6; stroke: rgb(79, 126, 208);"/>
      </g>
    </g>
  </g>
  <g transform="matrix(0, -1.079366, 1, 0.000001, 10.766787, 512.157104)">
    <g transform="matrix(1.058823, 0, 0, 1, -25.30953, 0)">
      <g transform="matrix(1, 0, 0, 1, -34.125, -11)">
        <path d="M 449.185 144.794 C 478.659 144.391 480.405 334.748 450.363 358.975 L 473.681 345.785" style="fill: none; stroke-width: 5.6; stroke: rgb(79, 126, 208);"/>
        <path d="M 451.788 357.347 L 443.78 334.108" style="fill: none; stroke-width: 5.6; stroke: rgb(79, 126, 208);"/>
      </g>
    </g>
  </g>
</svg>