<?xml version="1.0" encoding="utf-8"?>
<svg viewBox="-65 0 700 400" xmlns="http://www.w3.org/2000/svg">
  <defs>
    <style id="bx-google-fonts">@import url(https://fonts.googleapis.com/css?family=Roboto:100,100italic,300,300italic,400,400italic,500,500italic,700,700italic,900,900italic);</style>
  </defs>
  <g>
    <g transform="matrix(1, 0, 0, 1, 146.841461, -26.083681)">
      <rect x="101.226" y="43.263" width="175.823" height="38.643" style="fill: rgb(216, 216, 216);"/>
      <text x="146.63" y="70.312" style="font-size: 27px; white-space: pre;">Projekt</text>
    </g>
  </g>
  <rect x="330.183" y="79.972" width="175.823" height="38.643" style="fill: rgb(216, 216, 216);"/>
  <text x="355.723" y="107.021" style="font-size: 23px; white-space: pre;">Teilprojekt-1</text>
  <rect x="101.226" y="79.007" width="175.823" height="38.643" style="fill: rgb(216, 216, 216);"/>
  <text x="126.766" y="106.056" style="font-size: 23px; white-space: pre;">Teilprojekt-2</text>
  <rect x="-53.124" y="140.835" width="118.825" height="38.643" style="fill: rgb(216, 216, 216);" rx="13.525" ry="13.525"/>
  <text x="-39.177" y="170.782" style="font-size: 21px; white-space: pre;">Aufgabe-1</text>
  <rect x="83.091" y="141.801" width="118.825" height="38.643" style="fill: rgb(216, 216, 216);" rx="13.525" ry="13.525"/>
  <text x="97.038" y="168.85" style="font-size: 21px; white-space: pre;">Aufgabe-2</text>
  <rect x="224.136" y="140.835" width="118.825" height="38.643" style="fill: rgb(216, 216, 216);" rx="13.525" ry="13.525"/>
  <text x="238.083" y="167.884" style="font-size: 21px; white-space: pre;">Aufgabe-2</text>
  <rect x="361.317" y="139.869" width="118.825" height="38.643" style="fill: rgb(216, 216, 216);" rx="13.525" ry="13.525"/>
  <text x="375.264" y="166.918" style="font-size: 21px; white-space: pre;">....</text>
  <path d="M 323.421 55.821 L 181.41 79.973" style="fill: none; stroke: black;"/>
  <path d="M 352.403 54.855 L 394.909 79.973" style="fill: none; stroke: black;"/>
  <path d="M 179.477 143.733 L 178.511 117.649 L 14.281 141.801" style="fill: none; stroke: black;"/>
  <path d="M 410.366 139.869 L 178.511 119.582 L 284.778 141.801" style="fill: none; stroke: black;"/>
  <path d="M 16.213 167.885 L 16.213 167.885 Z" style="fill: none; stroke: black;"/>
  <rect x="6.07" y="212.324" width="160.366" height="38.643" style="fill: rgb(216, 216, 216);" rx="13.525" ry="13.525"/>
  <text x="18.017" y="239.271" style="font-size: 21px; white-space: pre;">Arbeitspakete1</text>
  <g transform="matrix(1, 0, 0, 1, 0, 3)">
    <rect x="8.002" y="267.423" width="160.366" height="38.643" style="fill: rgb(216, 216, 216);" rx="13.525" ry="13.525"/>
    <text x="19.949" y="293.37" style="font-size: 21px; white-space: pre;">Arbeitspakete2</text>
  </g>
  <rect x="8.968" y="326.319" width="160.366" height="38.643" style="fill: rgb(216, 216, 216);" rx="13.525" ry="13.525"/>
  <text x="72.915" y="353.266" style="font-size: 21px; white-space: pre;">...</text>
  <path d="M -25.328 179.477 L -25.328 366.893" style="fill: none; stroke: black;"/>
  <path d="M -24.362 228.747 L 6.552 229.713" style="fill: none; stroke: black;"/>
  <path d="M -24.362 287.676 L 9.45 287.677" style="fill: none; stroke: black;"/>
  <path d="M -25.328 340.81 L 9.451 341.776" style="fill: none; stroke: black;"/>
  <path d="M -23.396 363.995" style="fill: none; stroke: black;"/>
</svg>