<?xml version="1.0" encoding="utf-8"?>
<svg viewBox="-65 0 1200 399" xmlns="http://www.w3.org/2000/svg">
  <defs>
    <style id="bx-google-fonts">@import url(https://fonts.googleapis.com/css?family=Roboto:100,100italic,300,300italic,400,400italic,500,500italic,700,700italic,900,900italic);</style>
  </defs>
  <g>
    <path d="M -42.328 152 L -42.328 292" style="fill: none; stroke: black;"/>
    <rect x="-57.124" y="94.835" width="129.825" height="61.643" style="fill: rgb(216, 216, 216);" rx="13.525" ry="13.525"/>
    <text x="-42.177" y="130.782" style="font-size: 21px; white-space: pre;">1.Vorstudie</text>
    <g transform="matrix(1, 0, 0, 1, 0, 27)">
      <rect x="-11.93" y="146.324" width="160.366" height="63.643" style="fill: rgb(216, 216, 216);" rx="13.525" ry="13.525"/>
      <text x="0.017" y="173.271" style="font-size: 17px; white-space: pre;">1.1. Informations-</text>
      <text x="0.017" y="194.271" style="font-size: 17px; white-space: pre;">beschaffung</text>
    </g>
    <path d="M -42.362 204.747 L -11.448 205.713" style="fill: none; stroke: black;"/>
    <path d="M -42.362 273.676 L -8.55 273.677" style="fill: none; stroke: black;"/>
    <g transform="matrix(1, 0, 0, 1, 5, 100)">
      <rect x="-11.93" y="146.324" width="160.366" height="63.643" style="fill: rgb(216, 216, 216);" rx="13.525" ry="13.525"/>
      <text x="0.017" y="173.271" style="font-size: 17px; white-space: pre;">1.2. Ziele,</text>
      <text x="0.017" y="194.271" style="font-size: 17px; white-space: pre;">Anforderungen</text>
    </g>
  </g>
  <rect x="140.067" y="25.179" width="239.823" height="38.643" style="fill: rgb(216, 216, 216);"/>
  <text x="152.471" y="53.228" style="font-size: 27px; white-space: pre;">e-Bestellformular</text>
  <path d="M 227.477 96.733 L 226.072 66.649 L -12.719 94.505" style="fill: none; stroke: black;"/>
  <path d="M 16.213 167.885 L 16.213 167.885 Z" style="fill: none; stroke: black;"/>
  <path d="M -23.396 363.995" style="fill: none; stroke: black;"/>
  <path d="M 225.078 65.876 L 468.078 93.876" style="fill: none; stroke: black;"/>
  <path d="M 388.078 19.876" style="fill: none; stroke: black;"/>
  <path d="M 226.078 64.876 L 741.078 97.876" style="fill: none; stroke: black;"/>
  <g>
    <path d="M 173.672 151 L 173.672 291" style="fill: none; stroke: black;"/>
    <rect x="158.876" y="93.835" width="156.825" height="61.643" style="fill: rgb(216, 216, 216);" rx="13.525" ry="13.525"/>
    <text x="166.823" y="131.782" style="font-size: 21px; white-space: pre;">2. Hauptstudie</text>
    <rect x="204.07" y="172.324" width="160.366" height="63.643" style="fill: rgb(216, 216, 216);" rx="13.525" ry="13.525"/>
    <text x="216.017" y="199.271" style="font-size: 17px; white-space: pre;">2.1. Spezifikation</text>
    <text x="216.017" y="220.271" style="font-size: 17px; white-space: pre;">Formular</text>
    <path d="M 173.638 203.747 L 204.552 204.713" style="fill: none; stroke: black;"/>
    <path d="M 173.638 272.676 L 207.45 272.677" style="fill: none; stroke: black;"/>
    <rect x="209.07" y="245.324" width="160.366" height="63.643" style="fill: rgb(216, 216, 216);" rx="13.525" ry="13.525"/>
    <text x="221.017" y="272.271" style="font-size: 17px; white-space: pre;">2.2. Spezifikation</text>
    <text x="221.017" y="293.271" style="font-size: 17px; white-space: pre;">Schnittstelle</text>
  </g>
  <g transform="matrix(1, 0, 0, 1, 265, 0)">
    <g>
      <path d="M 173.672 151 L 173.672 291" style="fill: none; stroke: black;"/>
      <rect x="158.876" y="93.835" width="147.825" height="61.643" style="fill: rgb(216, 216, 216);" rx="13.525" ry="13.525"/>
      <text x="166.823" y="131.782" style="font-size: 21px; white-space: pre;">3.Realisierung</text>
      <rect x="204.07" y="172.324" width="160.366" height="63.643" style="fill: rgb(216, 216, 216);" rx="13.525" ry="13.525"/>
      <text x="206.017" y="210.271" style="font-size: 17px; white-space: pre;">3.1 Programmierung</text>
      <path d="M 173.638 203.747 L 204.552 204.713" style="fill: none; stroke: black;"/>
      <path d="M 173.638 272.676 L 207.45 272.677" style="fill: none; stroke: black;"/>
      <rect x="209.07" y="245.324" width="160.366" height="63.643" style="fill: rgb(216, 216, 216);" rx="13.525" ry="13.525"/>
      <text x="221.017" y="283.005" style="font-size: 17px; white-space: pre;">3.2. Test</text>
      <text x="221.017" y="293.271" style="font-size: 21px; white-space: pre;"> </text>
    </g>
    <g transform="matrix(1, 0, 0, 1, 229, 1)">
      <path d="M 173.672 151 L 173.672 291" style="fill: none; stroke: black;"/>
      <rect x="158.876" y="93.835" width="129.825" height="61.643" style="fill: rgb(216, 216, 216);" rx="13.525" ry="13.525"/>
      <text x="166.823" y="131.782" style="font-size: 21px; white-space: pre;">4. Einführung</text>
      <rect x="204.07" y="172.324" width="160.366" height="63.643" style="fill: rgb(216, 216, 216);" rx="13.525" ry="13.525"/>
      <text x="216.017" y="212.005" style="font-size: 17px; white-space: pre;">4.1. Schulung</text>
      <path d="M 173.638 203.747 L 204.552 204.713" style="fill: none; stroke: black;"/>
      <path d="M 173.638 272.676 L 207.45 272.677" style="fill: none; stroke: black;"/>
      <rect x="209.07" y="245.324" width="160.366" height="63.643" style="fill: rgb(216, 216, 216);" rx="13.525" ry="13.525"/>
      <text x="221.017" y="283.005" style="font-size: 17px; white-space: pre;">4.2. Verteilung</text>
      <text x="221.017" y="293.271" style="font-size: 21px; white-space: pre;"> </text>
    </g>
  </g>
</svg>