<?xml version="1.0" encoding="utf-8"?>
<svg viewBox="0 0 577 516" xmlns="http://www.w3.org/2000/svg" xmlns:xlink="http://www.w3.org/1999/xlink">
  <defs>
    <style id="bx-google-fonts">@import url(https://fonts.googleapis.com/css?family=Alef:700,400|Roboto:100,100italic,300,300italic,400,400italic,500,500italic,700,700italic,900,900italic);</style>
    <pattern id="pattern-0" x="0" y="0" width="20" height="20" patternUnits="userSpaceOnUse" viewBox="0 0 100 100">
      <path d="M 0 0 L 50 0 L 50 100 L 0 100 Z" style="fill: black;"/>
    </pattern>
    <pattern id="pattern-0-0" patternTransform="matrix(1.06769, 0, 0, -0.747999, 275.474091, 200.371002)" xlink:href="#pattern-0"/>
    <pattern id="pattern-1" patternTransform="matrix(1.06769, 0, 0, -0.748, 275.474091, 289.371124)" xlink:href="#pattern-0"/>
  </defs>
  <rect x="168.361" y="116.85" width="112.063" height="52.168" style="fill: rgb(239, 193, 24);"/>
  <text x="189.648" y="147.697" style="font-family: Alef; white-space: pre;">Vorstand</text>
  <g transform="matrix(0.998234, 0, 0, 1, 60.014709, 73.05426)">
    <rect x="109.413" y="138.994" width="112.063" height="52.168" style="fill: rgb(239, 193, 24);"/>
    <text x="121.926" y="157.808" style="font-family: Alef; white-space: pre;">Bewilligungs-</text>
    <text x="122.8" y="177.406" style="font-family: Alef; white-space: pre;">gremium</text>
  </g>
  <g transform="matrix(0.998234, 0, 0, 1, 63.610565, 93.274368)">
    <g>
      <rect x="106.009" y="203.747" width="112.063" height="52.168" style="fill: rgb(239, 193, 24);"/>
      <text x="112.296" y="233.594" style="font-family: Alef; font-size: 14px; white-space: pre;">Fachbeauftragte</text>
    </g>
  </g>
  <path d="M 10.403 193.265 L 477.995 196.887" style="fill: none; stroke-linejoin: round; stroke: url(#pattern-0-0); stroke-width: 2;"/>
  <path d="M 10.403 282.265 L 477.121 283.265" style="fill: none; stroke-linejoin: round; stroke: url(#pattern-1); stroke-width: 2;"/>
  <g transform="matrix(1, 0, 0, 1, -18, 0)">
    <rect x="88.653" y="76.4" width="59.432" height="297.161" style="fill: rgb(243, 235, 235);"/>
    <text x="119.176" y="415.386" transform="matrix(0, -0.962853, 1.179825, 0, -358.234985, 437.366333)" style="font-size: 35.3117px; white-space: pre;">Antragsteller</text>
  </g>
  <path d="M 51.645 415.758 C 51.645 415.758 51.645 415.758 51.645 415.758 Z" style="fill: none; stroke: rgb(25, 23, 23);"/>
  <text x="40.351" y="162.799" style="font-size: 14px; white-space: pre;" transform="matrix(0, -1, 1, 0, -121.812515, 209.156257)">Ebene 1</text>
  <text x="40.351" y="162.799" transform="matrix(0, -1, 1, 0, -121.812515, 302.155192)" style="font-size: 14px; white-space: pre; vector-effect: non-scaling-stroke;">Ebene 2</text>
  <text x="40.351" y="162.799" transform="matrix(0, -0.999999, 1, 0, -121.812515, 387.004822)" style="font-size: 14px; white-space: pre; vector-effect: non-scaling-stroke;">Ebene 3</text>
  <path d="M 339.192 425.372 C 339.192 425.372 339.192 425.372 339.192 425.372 Z" style="fill: none; stroke: rgb(29, 27, 27);"/>
  <path d="M 304.192 425.372 L 305.192 11.968" style="fill: none; stroke: rgb(29, 27, 27); stroke-width: 3;"/>
  <text x="67.288" y="44.565" style="font-size: 24px; white-space: pre;">Linienorganisation</text>
  <text x="327.025" y="43.061" style="font-size: 24px; white-space: pre;">Projektorganisation</text>
  <rect x="343.17" y="211.242" width="112.063" height="52.168" style="fill: rgb(239, 65, 34);"/>
  <text x="189.648" y="147.697" transform="matrix(1, 0, 0, 1.000001, 163.808701, 94.392258)" style="white-space: pre;">Auftraggeber</text>
  <rect x="343.295" y="298.575" width="111.865" height="52.168" style="fill: rgb(239, 65, 34);"/>
  <text x="121.926" y="157.808" transform="matrix(0.998234, 0, 0, 1, 238.075409, 161.580627)" style="white-space: pre;">Lenkungs-</text>
  <text x="122.8" y="177.406" transform="matrix(0.998234, 0, 0, 1, 237.075409, 161.580627)" style="white-space: pre;">ausschuss</text>
  <rect x="341.745" y="359.076" width="111.865" height="52.168" style="fill: rgb(239, 65, 34);"/>
  <text x="112.296" y="233.594" transform="matrix(0.998234, 0, 0, 1, 242.923248, 155.328629)" style="white-space: pre;">Projektleiter</text>
  <rect x="341.547" y="420.061" width="111.865" height="52.168" style="fill: rgb(239, 65, 34);"/>
  <text x="121.926" y="157.808" transform="matrix(0.998234, 0, 0, 1, 232.327423, 281.067139)" style="white-space: pre;">Projekt-</text>
  <text x="122.8" y="177.406" transform="matrix(0.998234, 0, 0, 1, 232.327423, 281.067139)" style="white-space: pre;">mitarbeiter</text>
</svg>